<svg height="464pt" viewBox="0 0 464 464.00024" width="464pt" xmlns="http://www.w3.org/2000/svg"><path d="m464 232c0 128.128906-103.871094 232-232 232s-232-103.871094-232-232 103.871094-232 232-232 232 103.871094 232 232zm0 0" fill="#f7cc38"/><path d="m232 0c-93.835938 0-178.429688 56.527344-214.339844 143.21875-35.90625 86.691406-16.058594 186.476562 50.292969 252.828125l164.046875-164.046875zm0 0" fill="#8cb28c"/><path d="m8.9375 168.265625 223.0625 63.734375v-232c-103.574219.0195312-194.59375 68.679688-223.0625 168.265625zm0 0" fill="#5f7bad"/><path d="m106.953125 36.617188 125.046875 195.382812v-232c-44.335938-.0625-87.75 12.648438-125.046875 36.617188zm0 0" fill="#ee638c"/></svg>